<mxfile host="app.diagrams.net" agent="Mozilla/5.0 (Windows NT 10.0; Win64; x64) AppleWebKit/537.36 (KHTML, like Gecko) Chrome/138.0.0.0 Safari/537.36" version="28.0.6">
  <diagram name="Page-1" id="dmJ5klp1wzARZ7jFiC1e">
    <mxGraphModel dx="1426" dy="749" grid="1" gridSize="10" guides="1" tooltips="1" connect="1" arrows="1" fold="1" page="1" pageScale="1" pageWidth="1169" pageHeight="827" math="0" shadow="0">
      <root>
        <mxCell id="0" />
        <mxCell id="1" parent="0" />
        <mxCell id="yowfagcIyN5PcVFSIJR1-57" style="edgeStyle=orthogonalEdgeStyle;rounded=0;orthogonalLoop=1;jettySize=auto;html=1;entryX=0;entryY=0.5;entryDx=0;entryDy=0;flowAnimation=1;" parent="1" source="yowfagcIyN5PcVFSIJR1-3" target="yowfagcIyN5PcVFSIJR1-5" edge="1">
          <mxGeometry relative="1" as="geometry" />
        </mxCell>
        <mxCell id="yowfagcIyN5PcVFSIJR1-3" value="Start" style="rounded=0;whiteSpace=wrap;html=1;fontSize=12;fillColor=#d5e8d4;strokeColor=#82b366;" parent="1" vertex="1">
          <mxGeometry x="29" y="320" width="50" height="30" as="geometry" />
        </mxCell>
        <mxCell id="6Qgw9M841O2UvQe1TRWj-9" style="edgeStyle=orthogonalEdgeStyle;rounded=0;orthogonalLoop=1;jettySize=auto;html=1;entryX=0;entryY=0.5;entryDx=0;entryDy=0;flowAnimation=1;" edge="1" parent="1" source="yowfagcIyN5PcVFSIJR1-5" target="yowfagcIyN5PcVFSIJR1-8">
          <mxGeometry relative="1" as="geometry" />
        </mxCell>
        <mxCell id="yowfagcIyN5PcVFSIJR1-5" value="Camera Captures Image" style="rounded=0;whiteSpace=wrap;html=1;fillColor=#dae8fc;strokeColor=#6c8ebf;fontSize=11;" parent="1" vertex="1">
          <mxGeometry x="129" y="230" width="120" height="50" as="geometry" />
        </mxCell>
        <mxCell id="6Qgw9M841O2UvQe1TRWj-10" style="edgeStyle=orthogonalEdgeStyle;rounded=0;orthogonalLoop=1;jettySize=auto;html=1;entryX=0;entryY=0.5;entryDx=0;entryDy=0;flowAnimation=1;" edge="1" parent="1" source="yowfagcIyN5PcVFSIJR1-8" target="yowfagcIyN5PcVFSIJR1-10">
          <mxGeometry relative="1" as="geometry" />
        </mxCell>
        <mxCell id="yowfagcIyN5PcVFSIJR1-8" value="Image Enhancement&lt;div&gt;(Brightness)&lt;/div&gt;" style="rounded=0;whiteSpace=wrap;html=1;fillColor=#dae8fc;strokeColor=#6c8ebf;" parent="1" vertex="1">
          <mxGeometry x="279" y="190" width="150" height="50" as="geometry" />
        </mxCell>
        <mxCell id="6Qgw9M841O2UvQe1TRWj-11" style="edgeStyle=orthogonalEdgeStyle;rounded=0;orthogonalLoop=1;jettySize=auto;html=1;entryX=0;entryY=0.5;entryDx=0;entryDy=0;flowAnimation=1;" edge="1" parent="1" source="yowfagcIyN5PcVFSIJR1-10" target="yowfagcIyN5PcVFSIJR1-11">
          <mxGeometry relative="1" as="geometry" />
        </mxCell>
        <mxCell id="yowfagcIyN5PcVFSIJR1-10" value="Region of Interest" style="rounded=0;whiteSpace=wrap;html=1;fillColor=#dae8fc;strokeColor=#6c8ebf;" parent="1" vertex="1">
          <mxGeometry x="459" y="160" width="150" height="50" as="geometry" />
        </mxCell>
        <mxCell id="6Qgw9M841O2UvQe1TRWj-7" style="edgeStyle=orthogonalEdgeStyle;rounded=0;orthogonalLoop=1;jettySize=auto;html=1;entryX=0.5;entryY=0;entryDx=0;entryDy=0;flowAnimation=1;" edge="1" parent="1" source="yowfagcIyN5PcVFSIJR1-11" target="yowfagcIyN5PcVFSIJR1-15">
          <mxGeometry relative="1" as="geometry" />
        </mxCell>
        <mxCell id="yowfagcIyN5PcVFSIJR1-11" value="Line Detection&lt;div&gt;(Black Pixels&lt;span style=&quot;background-color: transparent; color: light-dark(rgb(0, 0, 0), rgb(255, 255, 255));&quot;&gt;)&lt;/span&gt;&lt;/div&gt;" style="rounded=0;whiteSpace=wrap;html=1;fillColor=#dae8fc;strokeColor=#6c8ebf;" parent="1" vertex="1">
          <mxGeometry x="639" y="130" width="150" height="50" as="geometry" />
        </mxCell>
        <mxCell id="yowfagcIyN5PcVFSIJR1-26" style="edgeStyle=orthogonalEdgeStyle;rounded=0;orthogonalLoop=1;jettySize=auto;html=1;entryX=0.5;entryY=0;entryDx=0;entryDy=0;exitX=1;exitY=0.5;exitDx=0;exitDy=0;shadow=0;" parent="1" source="yowfagcIyN5PcVFSIJR1-15" target="yowfagcIyN5PcVFSIJR1-25" edge="1">
          <mxGeometry relative="1" as="geometry">
            <Array as="points">
              <mxPoint x="1064" y="268" />
            </Array>
          </mxGeometry>
        </mxCell>
        <mxCell id="yowfagcIyN5PcVFSIJR1-27" value="Plus Junction Found" style="edgeLabel;html=1;align=center;verticalAlign=middle;resizable=0;points=[];" parent="yowfagcIyN5PcVFSIJR1-26" vertex="1" connectable="0">
          <mxGeometry x="0.1916" y="1" relative="1" as="geometry">
            <mxPoint x="-1" y="19" as="offset" />
          </mxGeometry>
        </mxCell>
        <mxCell id="yowfagcIyN5PcVFSIJR1-52" style="edgeStyle=orthogonalEdgeStyle;rounded=0;orthogonalLoop=1;jettySize=auto;html=1;entryX=0.5;entryY=0;entryDx=0;entryDy=0;exitX=0;exitY=0.5;exitDx=0;exitDy=0;" parent="1" source="yowfagcIyN5PcVFSIJR1-15" target="yowfagcIyN5PcVFSIJR1-16" edge="1">
          <mxGeometry relative="1" as="geometry" />
        </mxCell>
        <mxCell id="6Qgw9M841O2UvQe1TRWj-5" value="Normal Read" style="edgeLabel;html=1;align=center;verticalAlign=middle;resizable=0;points=[];" vertex="1" connectable="0" parent="yowfagcIyN5PcVFSIJR1-52">
          <mxGeometry x="0.3836" y="2" relative="1" as="geometry">
            <mxPoint x="-2" y="9" as="offset" />
          </mxGeometry>
        </mxCell>
        <mxCell id="yowfagcIyN5PcVFSIJR1-15" value="Junction Detection&lt;div&gt;(Pixel Percentage)&lt;/div&gt;" style="rhombus;whiteSpace=wrap;html=1;fillColor=#fff2cc;strokeColor=#d6b656;" parent="1" vertex="1">
          <mxGeometry x="834" y="190" width="155" height="155" as="geometry" />
        </mxCell>
        <mxCell id="6Qgw9M841O2UvQe1TRWj-14" style="edgeStyle=orthogonalEdgeStyle;rounded=0;orthogonalLoop=1;jettySize=auto;html=1;entryX=0.5;entryY=0;entryDx=0;entryDy=0;flowAnimation=1;" edge="1" parent="1" source="yowfagcIyN5PcVFSIJR1-16" target="6Qgw9M841O2UvQe1TRWj-12">
          <mxGeometry relative="1" as="geometry" />
        </mxCell>
        <mxCell id="yowfagcIyN5PcVFSIJR1-16" value="Line Detection&lt;div&gt;(White Pixels surround)&lt;/div&gt;" style="rounded=0;whiteSpace=wrap;html=1;fillColor=#dae8fc;strokeColor=#6c8ebf;" parent="1" vertex="1">
          <mxGeometry x="699.5" y="314" width="150" height="50" as="geometry" />
        </mxCell>
        <mxCell id="yowfagcIyN5PcVFSIJR1-31" style="edgeStyle=orthogonalEdgeStyle;rounded=0;orthogonalLoop=1;jettySize=auto;html=1;entryX=0.5;entryY=0;entryDx=0;entryDy=0;exitX=0;exitY=0.5;exitDx=0;exitDy=0;" parent="1" source="yowfagcIyN5PcVFSIJR1-19" target="yowfagcIyN5PcVFSIJR1-28" edge="1">
          <mxGeometry relative="1" as="geometry" />
        </mxCell>
        <mxCell id="yowfagcIyN5PcVFSIJR1-32" value="Yes" style="edgeLabel;html=1;align=center;verticalAlign=middle;resizable=0;points=[];" parent="yowfagcIyN5PcVFSIJR1-31" vertex="1" connectable="0">
          <mxGeometry x="0.0672" y="1" relative="1" as="geometry">
            <mxPoint as="offset" />
          </mxGeometry>
        </mxCell>
        <mxCell id="yowfagcIyN5PcVFSIJR1-33" style="edgeStyle=orthogonalEdgeStyle;rounded=0;orthogonalLoop=1;jettySize=auto;html=1;entryX=0.5;entryY=0;entryDx=0;entryDy=0;exitX=1;exitY=0.5;exitDx=0;exitDy=0;" parent="1" source="yowfagcIyN5PcVFSIJR1-19" target="yowfagcIyN5PcVFSIJR1-29" edge="1">
          <mxGeometry relative="1" as="geometry" />
        </mxCell>
        <mxCell id="yowfagcIyN5PcVFSIJR1-34" value="No" style="edgeLabel;html=1;align=center;verticalAlign=middle;resizable=0;points=[];" parent="yowfagcIyN5PcVFSIJR1-33" vertex="1" connectable="0">
          <mxGeometry x="0.0291" y="-1" relative="1" as="geometry">
            <mxPoint as="offset" />
          </mxGeometry>
        </mxCell>
        <mxCell id="yowfagcIyN5PcVFSIJR1-19" value="Line Found?" style="rhombus;whiteSpace=wrap;html=1;fillColor=#fff2cc;strokeColor=#d6b656;" parent="1" vertex="1">
          <mxGeometry x="722" y="470" width="105" height="105" as="geometry" />
        </mxCell>
        <mxCell id="yowfagcIyN5PcVFSIJR1-35" style="edgeStyle=orthogonalEdgeStyle;rounded=0;orthogonalLoop=1;jettySize=auto;html=1;entryX=0.5;entryY=0;entryDx=0;entryDy=0;flowAnimation=1;" parent="1" source="yowfagcIyN5PcVFSIJR1-25" target="yowfagcIyN5PcVFSIJR1-30" edge="1">
          <mxGeometry relative="1" as="geometry" />
        </mxCell>
        <mxCell id="yowfagcIyN5PcVFSIJR1-25" value="Lock Steer Angle" style="rounded=0;whiteSpace=wrap;html=1;fillColor=#fff2cc;strokeColor=#d6b656;" parent="1" vertex="1">
          <mxGeometry x="989" y="510" width="150" height="50" as="geometry" />
        </mxCell>
        <mxCell id="yowfagcIyN5PcVFSIJR1-37" style="edgeStyle=orthogonalEdgeStyle;rounded=0;orthogonalLoop=1;jettySize=auto;html=1;entryX=0.5;entryY=0;entryDx=0;entryDy=0;exitX=0.5;exitY=1;exitDx=0;exitDy=0;" parent="1" source="yowfagcIyN5PcVFSIJR1-28" target="yowfagcIyN5PcVFSIJR1-36" edge="1">
          <mxGeometry relative="1" as="geometry" />
        </mxCell>
        <mxCell id="6Qgw9M841O2UvQe1TRWj-8" value="with PID" style="edgeLabel;html=1;align=center;verticalAlign=middle;resizable=0;points=[];" vertex="1" connectable="0" parent="yowfagcIyN5PcVFSIJR1-37">
          <mxGeometry x="0.0196" y="1" relative="1" as="geometry">
            <mxPoint as="offset" />
          </mxGeometry>
        </mxCell>
        <mxCell id="yowfagcIyN5PcVFSIJR1-28" value="&lt;div&gt;Calculate Steering&lt;/div&gt;" style="rounded=0;whiteSpace=wrap;html=1;fillColor=#dae8fc;strokeColor=#6c8ebf;" parent="1" vertex="1">
          <mxGeometry x="629" y="614" width="120" height="40" as="geometry" />
        </mxCell>
        <mxCell id="yowfagcIyN5PcVFSIJR1-29" value="Memory Mode" style="rounded=0;whiteSpace=wrap;html=1;fillColor=#dae8fc;strokeColor=#6c8ebf;" parent="1" vertex="1">
          <mxGeometry x="799" y="614" width="120" height="40" as="geometry" />
        </mxCell>
        <mxCell id="yowfagcIyN5PcVFSIJR1-39" style="edgeStyle=orthogonalEdgeStyle;rounded=0;orthogonalLoop=1;jettySize=auto;html=1;entryX=1;entryY=1;entryDx=0;entryDy=0;exitX=0.5;exitY=1;exitDx=0;exitDy=0;flowAnimation=1;" parent="1" source="yowfagcIyN5PcVFSIJR1-30" target="yowfagcIyN5PcVFSIJR1-36" edge="1">
          <mxGeometry relative="1" as="geometry">
            <Array as="points">
              <mxPoint x="1064" y="790" />
              <mxPoint x="599" y="790" />
            </Array>
          </mxGeometry>
        </mxCell>
        <mxCell id="yowfagcIyN5PcVFSIJR1-30" value="Continue Straight Strategy" style="rounded=0;whiteSpace=wrap;html=1;fillColor=#dae8fc;strokeColor=#6c8ebf;" parent="1" vertex="1">
          <mxGeometry x="1004" y="650" width="120" height="40" as="geometry" />
        </mxCell>
        <mxCell id="yowfagcIyN5PcVFSIJR1-54" style="edgeStyle=orthogonalEdgeStyle;rounded=0;orthogonalLoop=1;jettySize=auto;html=1;entryX=0.5;entryY=1;entryDx=0;entryDy=0;flowAnimation=1;" parent="1" source="yowfagcIyN5PcVFSIJR1-36" target="yowfagcIyN5PcVFSIJR1-41" edge="1">
          <mxGeometry relative="1" as="geometry" />
        </mxCell>
        <mxCell id="yowfagcIyN5PcVFSIJR1-36" value="Motor Control&lt;div&gt;(Steer &amp;amp; Speed)&lt;/div&gt;" style="rounded=0;whiteSpace=wrap;html=1;fillColor=#ffe6cc;strokeColor=#d79b00;" parent="1" vertex="1">
          <mxGeometry x="429" y="734" width="170" height="56.67" as="geometry" />
        </mxCell>
        <mxCell id="yowfagcIyN5PcVFSIJR1-38" style="edgeStyle=orthogonalEdgeStyle;rounded=0;orthogonalLoop=1;jettySize=auto;html=1;flowAnimation=1;" parent="1" source="yowfagcIyN5PcVFSIJR1-29" edge="1">
          <mxGeometry relative="1" as="geometry">
            <mxPoint x="599" y="735" as="targetPoint" />
            <Array as="points">
              <mxPoint x="859" y="735" />
            </Array>
          </mxGeometry>
        </mxCell>
        <mxCell id="yowfagcIyN5PcVFSIJR1-55" style="edgeStyle=orthogonalEdgeStyle;rounded=0;orthogonalLoop=1;jettySize=auto;html=1;entryX=0.5;entryY=1;entryDx=0;entryDy=0;flowAnimation=1;" parent="1" source="yowfagcIyN5PcVFSIJR1-41" target="yowfagcIyN5PcVFSIJR1-43" edge="1">
          <mxGeometry relative="1" as="geometry" />
        </mxCell>
        <mxCell id="yowfagcIyN5PcVFSIJR1-41" value="Execute Movement" style="rounded=0;whiteSpace=wrap;html=1;fillColor=#dae8fc;strokeColor=#6c8ebf;" parent="1" vertex="1">
          <mxGeometry x="284" y="560" width="120" height="40" as="geometry" />
        </mxCell>
        <mxCell id="yowfagcIyN5PcVFSIJR1-56" style="edgeStyle=orthogonalEdgeStyle;rounded=0;orthogonalLoop=1;jettySize=auto;html=1;entryX=0.5;entryY=1;entryDx=0;entryDy=0;" parent="1" edge="1">
          <mxGeometry relative="1" as="geometry">
            <mxPoint x="341" y="380" as="sourcePoint" />
            <mxPoint x="186" y="280" as="targetPoint" />
            <Array as="points">
              <mxPoint x="341" y="350" />
              <mxPoint x="186" y="350" />
            </Array>
          </mxGeometry>
        </mxCell>
        <mxCell id="6Qgw9M841O2UvQe1TRWj-3" value="Yes (Default)" style="edgeLabel;html=1;align=center;verticalAlign=middle;resizable=0;points=[];" vertex="1" connectable="0" parent="yowfagcIyN5PcVFSIJR1-56">
          <mxGeometry x="-0.1413" y="1" relative="1" as="geometry">
            <mxPoint x="-7" as="offset" />
          </mxGeometry>
        </mxCell>
        <mxCell id="6Qgw9M841O2UvQe1TRWj-1" style="edgeStyle=orthogonalEdgeStyle;rounded=0;orthogonalLoop=1;jettySize=auto;html=1;" edge="1" parent="1" source="yowfagcIyN5PcVFSIJR1-43" target="yowfagcIyN5PcVFSIJR1-44">
          <mxGeometry relative="1" as="geometry" />
        </mxCell>
        <mxCell id="6Qgw9M841O2UvQe1TRWj-2" value="No (Interrupt)" style="edgeLabel;html=1;align=center;verticalAlign=middle;resizable=0;points=[];" vertex="1" connectable="0" parent="6Qgw9M841O2UvQe1TRWj-1">
          <mxGeometry x="-0.1106" relative="1" as="geometry">
            <mxPoint as="offset" />
          </mxGeometry>
        </mxCell>
        <mxCell id="yowfagcIyN5PcVFSIJR1-43" value="Continue?" style="rhombus;whiteSpace=wrap;html=1;fillColor=#fff2cc;strokeColor=#d6b656;" parent="1" vertex="1">
          <mxGeometry x="291.5" y="380" width="105" height="105" as="geometry" />
        </mxCell>
        <mxCell id="yowfagcIyN5PcVFSIJR1-44" value="Stop&amp;nbsp;" style="rounded=0;whiteSpace=wrap;html=1;fillColor=#f8cecc;strokeColor=#b85450;" parent="1" vertex="1">
          <mxGeometry x="29" y="417.5" width="50" height="30" as="geometry" />
        </mxCell>
        <mxCell id="6Qgw9M841O2UvQe1TRWj-13" style="edgeStyle=orthogonalEdgeStyle;rounded=0;orthogonalLoop=1;jettySize=auto;html=1;entryX=0.5;entryY=0;entryDx=0;entryDy=0;flowAnimation=1;" edge="1" parent="1" source="6Qgw9M841O2UvQe1TRWj-12" target="yowfagcIyN5PcVFSIJR1-19">
          <mxGeometry relative="1" as="geometry" />
        </mxCell>
        <mxCell id="6Qgw9M841O2UvQe1TRWj-12" value="Line Box Size" style="rounded=0;whiteSpace=wrap;html=1;fillColor=#dae8fc;strokeColor=#6c8ebf;" vertex="1" parent="1">
          <mxGeometry x="699.5" y="387" width="150" height="50" as="geometry" />
        </mxCell>
      </root>
    </mxGraphModel>
  </diagram>
</mxfile>
